<?xml version="1.0" ?><!-- Uploaded to: SVG Repo, www.svgrepo.com, Transformed by: SVG Repo Mixer Tools -->
<svg width="800px" height="800px" viewBox="0 0 24 24" data-name="016_FOOD" id="_016_FOOD" xmlns="http://www.w3.org/2000/svg"><defs><style>.cls-1{fill:#333;}</style></defs><path class="cls-1" d="M13.17,19a10.64,10.64,0,0,1-9.76-6.61,1.05,1.05,0,0,1,0-.78A10.64,10.64,0,0,1,13.17,5a10.64,10.64,0,0,1,9.75,6.61,1,1,0,0,1,0,.78,11.21,11.21,0,0,1-1.68,2.77,1,1,0,1,1-1.54-1.28A8.58,8.58,0,0,0,20.9,12a8.6,8.6,0,0,0-7.73-5,8.62,8.62,0,0,0-7.74,5,8.62,8.62,0,0,0,7.74,5,8.28,8.28,0,0,0,3.75-.89,1,1,0,1,1,.9,1.78A10.18,10.18,0,0,1,13.17,19Z"/><ellipse class="cls-1" cx="10.95" cy="4.47" rx="1.58" ry="2.42" transform="translate(0.04 9.05) rotate(-45)"/><circle class="cls-1" cx="18" cy="12" r="1"/><ellipse class="cls-1" cx="10.95" cy="19.39" rx="2.42" ry="1.58" transform="translate(-10.51 13.42) rotate(-45)"/><path class="cls-1" d="M5.33,11.91S3,12.37,1.8,11.2s-.71-3.53-.71-3.53,2.36-.47,3.54.7S5.33,11.91,5.33,11.91Z"/><path class="cls-1" d="M5.33,11.67S3,11.2,1.8,12.37s-.71,3.54-.71,3.54,2.36.46,3.54-.71S5.33,11.67,5.33,11.67Z"/></svg>