<?xml version="1.0" encoding="iso-8859-1"?>
<!-- Uploaded to: SVG Repo, www.svgrepo.com, Transformed by: SVG Repo Mixer Tools -->
<!DOCTYPE svg PUBLIC "-//W3C//DTD SVG 1.1//EN" "http://www.w3.org/Graphics/SVG/1.1/DTD/svg11.dtd">
<svg height="800px" width="800px" version="1.1" id="Capa_1" xmlns="http://www.w3.org/2000/svg" xmlns:xlink="http://www.w3.org/1999/xlink" 
	 viewBox="0 0 439.458 439.458" xml:space="preserve">
<g>
	<path style="fill:#CC640E;" d="M333.074,159.952L333.074,159.952c0-40.011-32.435-72.446-72.446-72.446H132.083v0
		c0,40.011,32.435,72.446,72.446,72.446H333.074z"/>
	<path style="fill:#F9993A;" d="M417.958,237.509h18.55c-18.5,26.77-41.89,47.38-67.91,61.8c-7.61,4.23-15.45,7.92-23.46,11.08
		c-9.63,3.8-19.5,6.85-29.51,9.13c-6.41,1.46-12.89,2.61-19.4,3.45c-9.05,1.16-18.18,1.72-27.3,1.68
		c-24.23-0.11-48.45-4.5-71.35-13.16c-17.2-6.49-33.65-15.41-48.81-26.74c-10.53-7.86-20.43-16.87-29.52-27.06
		c-7.62-8.52-14.67-17.85-21.03-28c6.38-10.15,13.43-19.5,21.03-28.02c9.1-10.18,18.99-19.2,29.52-27.04
		c15.15-11.33,31.61-20.25,48.81-26.72c22.89-8.68,47.12-13.07,71.35-13.19h1.02c8.8,0,17.56,0.56,26.28,1.69
		c6.51,0.84,12.99,1.99,19.4,3.45c10.01,2.28,19.88,5.31,29.51,9.11c8.01,3.17,15.85,6.86,23.47,11.09
		c27.42,15.21,51.92,37.28,70.85,66.2h-12.83c-4.79,0-8.67,3.88-8.67,8.67V237.509z"/>
	<path style="fill:#CC640E;" d="M417.958,237.509h18.55c-18.5,26.77-41.89,47.38-67.91,61.8c-14.43-19.45-22.97-43.54-22.97-69.62
		c0-26.09,8.54-50.18,22.98-69.63c27.42,15.21,51.92,37.28,70.85,66.2h-12.83c-4.79,0-8.67,3.88-8.67,8.67V237.509z"/>
	<g>
		<circle style="fill:#FFFFFF;" cx="381.209" cy="229.689" r="17.222"/>
		<circle style="fill:#4D4D4D;" cx="381.209" cy="229.689" r="10.537"/>
	</g>
	<path style="fill:#CC640E;" d="M258.294,305.699L258.294,305.699l0-127.02c0-13.807,11.193-25,25-25h0v127.02
		C283.294,294.506,272.101,305.699,258.294,305.699z"/>
	<path style="fill:#CC640E;" d="M236.28,300.189L236.28,300.189l0-116c0-13.807-11.193-25-25-25h0v116
		C211.28,288.996,222.473,300.189,236.28,300.189z"/>
	<path style="fill:#CC640E;" d="M330.308,300.189L330.308,300.189l0-116c0-13.807-11.193-25-25-25h0v116
		C305.308,288.996,316.501,300.189,330.308,300.189z"/>
	<path style="fill:#CC640E;" d="M164.266,275.189L164.266,275.189l0-66c0-13.807,11.193-25,25-25h0v66
		C189.266,263.996,178.074,275.189,164.266,275.189z"/>
	<path style="fill:#CC640E;" d="M215.861,351.952L215.861,351.952c0-18.472,14.974-33.446,33.446-33.446h38.401v0
		c0,18.472-14.974,33.446-33.446,33.446H215.861z"/>
	<g>
		<path style="fill:#CC640E;" d="M107.278,229.684L107.278,229.684l-34.329,0C32.66,229.684,0,197.023,0,156.735v0h34.329
			C74.618,156.735,107.278,189.395,107.278,229.684z"/>
		<path style="fill:#CC640E;" d="M107.278,229.684L107.278,229.684l-34.329,0C32.66,229.684,0,262.344,0,302.633v0h34.329
			C74.618,302.633,107.278,269.973,107.278,229.684z"/>
	</g>
</g>
</svg>