<?xml version="1.0" encoding="iso-8859-1"?>
<!-- Uploaded to: SVG Repo, www.svgrepo.com, Transformed by: SVG Repo Mixer Tools -->
<svg height="800px" width="800px" version="1.1" id="Layer_1" xmlns="http://www.w3.org/2000/svg" xmlns:xlink="http://www.w3.org/1999/xlink" 
	 viewBox="0 0 512 512" xml:space="preserve">
<path style="fill:#FAE8AC;" d="M0,307.052V204.947c0-12.572,13.641-20.428,24.511-14.151l88.427,51.053
	c10.889,6.287,10.87,22.027,0,28.302l-88.427,51.053C13.673,327.462,0,319.645,0,307.052z"/>
<g>
	<path style="fill:#F6D86E;" d="M0,255.999v51.053c0,12.593,13.673,20.409,24.511,14.151l88.427-51.053
		c5.436-3.138,8.158-8.644,8.159-14.151L0,255.999L0,255.999z"/>
	<path style="fill:#F6D86E;" d="M325.774,386.254c-98.654,0-179.012-99.977-201.189-130.424
		c44.03-63.162,123.503-130.086,201.189-130.086c9.024,0,16.34-7.316,16.34-16.34s-7.316-16.34-16.34-16.34h-221.01
		c-9.024,0-16.34,7.316-16.34,16.34c0,12.869,0,280.322,0,293.192c0,9.024,7.316,16.34,16.34,16.34h221.01
		c9.024,0,16.34-7.316,16.34-16.34C342.114,393.572,334.798,386.254,325.774,386.254z"/>
</g>
<path style="fill:#FBB071;" d="M325.774,386.254c-98.477,0-178.721-99.618-201.066-130.255H88.423c0,70.081,0,140.162,0,146.595
	c0,9.024,7.316,16.34,16.34,16.34h221.01c9.024,0,16.34-7.316,16.34-16.34C342.114,393.571,334.798,386.254,325.774,386.254z"/>
<path style="fill:#FAE8AC;" d="M357.888,418.935h-32.114c-97.894,0-190.485-85.577-234.735-154.07
	c-3.486-5.398-3.487-12.336,0-17.733c47.571-73.646,140.149-154.07,234.735-154.07h32.114c61.023,0,110.668,49.64,110.668,110.657
	v21.719l33.971,15.733c5.776,2.675,9.473,8.461,9.473,14.827c0,6.366-3.697,12.152-9.473,14.827l-33.971,15.733v21.719
	C468.556,369.295,418.911,418.935,357.888,418.935z"/>
<g>
	<path style="fill:#F6D86E;" d="M91.038,264.867c44.25,68.491,136.841,154.068,234.736,154.068h32.114
		c61.023,0,110.668-49.64,110.668-110.657v-21.719l33.971-15.733c5.776-2.675,9.473-8.461,9.473-14.827H88.423
		C88.423,259.083,89.295,262.167,91.038,264.867z"/>
	<path style="fill:#F6D86E;" d="M316.151,320.321c-28.891-37.354-29.7-90.234-0.002-128.637c5.522-7.14,15.784-8.451,22.922-2.93
		c7.14,5.521,8.451,15.784,2.93,22.922c-20.156,26.065-20.204,62.528,0,88.652c5.521,7.139,4.21,17.401-2.928,22.922
		C331.935,328.771,321.671,327.46,316.151,320.321z"/>
</g>
<path style="fill:#FBB071;" d="M326.866,255.999h-32.682c0.016,22.823,7.436,45.535,21.966,64.321
	c5.521,7.14,15.784,8.45,22.922,2.928c7.139-5.521,8.45-15.784,2.928-22.922C331.905,287.271,326.865,271.632,326.866,255.999z"/>
<circle style="fill:#633B2E;" cx="414.578" cy="206.401" r="17.812"/>
</svg>