<?xml version="1.0" encoding="iso-8859-1"?>
<!-- Uploaded to: SVG Repo, www.svgrepo.com, Transformed by: SVG Repo Mixer Tools -->
<svg height="800px" width="800px" version="1.1" id="Layer_1" xmlns="http://www.w3.org/2000/svg" xmlns:xlink="http://www.w3.org/1999/xlink" 
	 viewBox="0 0 297 297" xml:space="preserve">
<g>
	<g>
		<path style="fill:#FA961E;" d="M210.619,80.174c0,0-0.768-29.107-37.999-32.018S55.94,18.594,55.94,62.337
			C55.94,150.144,210.619,80.174,210.619,80.174z"/>
	</g>
	<g>
		<path style="fill:#FA961E;" d="M210.619,233.12c0,0-0.768-29.107-37.999-32.018c-37.231-2.911-116.68-29.562-116.68,14.181
			C55.94,303.09,210.619,233.12,210.619,233.12z"/>
	</g>
	<g>
		<path style="fill:#E58115;" d="M172.62,48.156c-6.691-0.523-14.75-1.814-23.462-3.325v56.107
			c32.71-7.76,61.461-20.765,61.461-20.765S209.851,51.067,172.62,48.156z"/>
	</g>
	<g>
		<path style="fill:#E58115;" d="M172.62,201.102c-6.691-0.523-14.75-1.814-23.462-3.325v56.107
			c32.71-7.76,61.461-20.765,61.461-20.765S209.851,204.013,172.62,201.102z"/>
	</g>
	<g>
		<path style="fill:#FA961E;" d="M55.94,129.61l-35.12-11.076c-6.146-1.938-12.798,1.199-14.83,7.02
			c-4.788,13.719-10.564,39.356-0.205,66.184c2.162,5.6,8.703,8.505,14.681,6.619L55.94,187.17V129.61z"/>
	</g>
	<g>
		<path style="fill:#FCD067;" d="M44.929,87.285c0.787-8.932,8.059-16.126,17.456-17.264c24.452-2.962,70.659-8.079,95.082-7.684
			c22.169,0.359,80.333,11.481,101.741,52.883c22.818,44.127,20.187,32.893,33.627,43.171c6.799,5.2,7.823,30.893-16.921,48.027
			c-30.503,21.122-32.602,36.784-222.859,38.23c-11.809,0.09-21.156-9.44-20.175-20.574L44.929,87.285z"/>
	</g>
	<g>
		<path style="fill:#EFBD59;" d="M292.835,158.391c-13.44-10.278-10.809,0.956-33.627-43.171
			c-21.409-41.401-79.573-52.524-101.742-52.883c-2.404-0.039-5.025-0.023-7.81,0.038v179.583
			c95.768-5.542,102.129-18.833,126.258-35.54C300.658,189.284,299.634,163.59,292.835,158.391z"/>
	</g>
	<g>
		<g>
			<path style="fill:#39393D;" d="M174.388,190.409c31.289-29.857,34.302-91.849,34.156-117.052
				c-12.554-5.016-25.136-8.009-35.503-9.585C171.065,107.932,174.388,190.409,174.388,190.409z"/>
		</g>
		<g>
			<path style="fill:#4A4A52;" d="M160.82,62.468c-1.183-0.066-2.32-0.114-3.354-0.131c-8.52-0.138-19.694,0.396-31.668,1.275
				c3.269,45.503,14.747,110.788,14.747,110.788C160.759,131.626,161.935,86.008,160.82,62.468z"/>
		</g>
		<g>
			<path style="fill:#39393D;" d="M160.82,62.468c-1.183-0.066-2.32-0.114-3.354-0.131c-2.404-0.039-5.025-0.023-7.81,0.038v88.927
				C161.097,116.004,161.736,81.794,160.82,62.468z"/>
		</g>
		<g>
			<path style="fill:#4A4A52;" d="M108.978,65.008c-10.74,0.982-21.444,2.112-30.89,3.176c3.555,39.932,12.544,91.061,12.544,91.061
				C107.148,124.297,109.46,87.224,108.978,65.008z"/>
		</g>
	</g>
	<g>
		<ellipse style="fill:#39393D;" cx="250.276" cy="150.629" rx="8.204" ry="7.762"/>
	</g>
</g>
</svg>