<?xml version="1.0" encoding="iso-8859-1"?>
<!-- Uploaded to: SVG Repo, www.svgrepo.com, Transformed by: SVG Repo Mixer Tools -->
<svg height="800px" width="800px" version="1.1" id="Layer_1" xmlns="http://www.w3.org/2000/svg" xmlns:xlink="http://www.w3.org/1999/xlink" 
	 viewBox="0 0 511.999 511.999" xml:space="preserve">
<g>
	<path style="fill:#475577;" d="M378.409,368.551c-2.196,1.778-109.558,83.88-175.651,96.863L51.872,332.463
		c13.03-8.508,24.903-13.555,32.611-16.3c5.668-2.017,9.522-2.816,12.803-3.174c6.933-0.764,14.056,1.265,20.321,5.059
		c17.565,10.656,39.508,20.416,62.454,28.972c61.273,22.886,129.717,37.253,141.017,37.253
		C335.531,384.273,359.15,377.835,378.409,368.551z"/>
	<path style="fill:#475577;" d="M318.695,161.137c0,0,15.512-89.493-91.88-114.551v141.698L318.695,161.137z"/>
</g>
<path style="fill:#61ACD2;" d="M511.999,274.495c0,0-53.803,46.668-108.895,80.102c-10.954,6.646-21.956,12.78-32.599,17.911
	c-0.024,0.012-0.036,0.024-0.036,0.024c-19.259,9.283-37.325,15.321-51.775,15.321c-11.3,0-79.744-14.367-141.017-37.253
	c-22.946-8.556-44.89-18.316-62.454-28.972c-6.265-3.795-13.388-5.823-20.321-5.059c-3.281,0.358-7.136,1.157-12.803,3.174
	c-7.708,2.744-19.581,7.792-32.611,16.3c-16.634,10.847-35.153,27.313-49.388,51.811c-2.386-66.822,39.377-108.585,39.377-108.585
	S-2.288,237.505,0.099,170.683c25.392,43.708,64.459,61.858,82,68.11c5.668,2.017,9.522,2.816,12.803,3.174
	c6.933,0.764,14.056-1.265,20.321-5.059c56.273-41.895,169.261-75.771,203.472-75.771c21.789,0,51.823,13.734,81.725,31.633
	C456.442,226.312,511.999,274.495,511.999,274.495z"/>
<path style="fill:#3E81C8;" d="M511.999,274.495c0,0-53.803,46.668-108.895,80.102c-59.113-72.967-20.774-138.237-2.685-161.827
	C456.442,226.312,511.999,274.495,511.999,274.495z"/>
<g>
	<path style="fill:#475577;" d="M215.915,336.045c-3.537,0-6.936-1.974-8.589-5.368c-17.135-35.178-17.135-77.185,0-112.363
		c2.309-4.742,8.021-6.71,12.763-4.402c4.74,2.309,6.711,8.023,4.402,12.762c-14.586,29.944-14.586,65.7,0,95.643
		c2.309,4.74,0.338,10.454-4.402,12.762C218.742,335.735,217.318,336.045,215.915,336.045z"/>
	<path style="fill:#475577;" d="M281.071,352.719c-2.989,0-5.933-1.4-7.793-4.024c-31.49-44.38-31.49-104.02,0-148.4
		c3.05-4.3,9.007-5.315,13.308-2.262c4.3,3.051,5.312,9.009,2.262,13.308c-26.801,37.773-26.801,88.533,0,126.307
		c3.051,4.3,2.038,10.258-2.262,13.308C284.911,352.146,282.982,352.719,281.071,352.719z"/>
	<path style="fill:#475577;" d="M160.247,318.958c-4.083,0-7.862-2.641-9.124-6.747c-7.574-24.674-7.574-50.757,0-75.431
		c1.548-5.039,6.887-7.868,11.928-6.324c5.04,1.546,7.872,6.886,6.324,11.926c-6.448,21.008-6.448,43.217,0,64.225
		c1.546,5.04-1.285,10.38-6.324,11.926C162.117,318.822,161.174,318.958,160.247,318.958z"/>
</g>
<circle style="fill:#2A324E;" cx="428.027" cy="257.788" r="9.546"/>
</svg>