<?xml version="1.0" encoding="iso-8859-1"?>
<!-- Uploaded to: SVG Repo, www.svgrepo.com, Transformed by: SVG Repo Mixer Tools -->
<svg height="800px" width="800px" version="1.1" id="Layer_1" xmlns="http://www.w3.org/2000/svg" xmlns:xlink="http://www.w3.org/1999/xlink" 
	 viewBox="0 0 361 361" xml:space="preserve">
<g id="XMLID_110_">
	<path id="XMLID_138_" style="fill:#0052B4;" d="M300,180.5c0-5.847-29-36.5-29-36.5s2-3,9-13.5c-32.236-23.417-80-40-140-40
		c-110,0-140,90-140,90s30,90,140,90c60,0,107.764-16.583,140-40c-7-10.5-9-13.5-9-13.5S300,186.347,300,180.5z"/>
	<g id="XMLID_64_">
		<path id="XMLID_197_" style="fill:#003778;" d="M271,217c0,0,0.162-0.172,0.438-0.464c-0.147,0.127-0.289,0.254-0.436,0.381
			c-22.071,18.929-66.575,45.468-119.706,53.383c54.715-1.938,98.519-17.872,128.705-39.8C273,220,271,217,271,217z"/>
	</g>
	<path id="XMLID_169_" style="fill:#003778;" d="M271.438,144.464C271.162,144.172,271,144,271,144s2-3,9-13.5
		c-30.186-21.928-73.99-37.862-128.705-39.8c53.131,7.915,97.635,34.454,119.706,53.383
		C271.148,144.21,271.29,144.337,271.438,144.464z"/>
	<path id="XMLID_221_" style="fill:#006DF0;" d="M150,90.663c-3.296-0.103-6.626-0.163-10-0.163c-110,0-140,90-140,90s30,90,140,90
		c3.374,0,6.704-0.06,10-0.163V90.663z"/>
	<polygon id="XMLID_222_" style="fill:#001B3C;" points="360,140.5 240,180.5 360,220.5 	"/>
	<path id="XMLID_223_" style="fill:#FFDA44;" d="M360,140.5l-60,40l60,40c0,0,1-14.526,1-40S360,140.5,360,140.5z"/>
	<circle id="XMLID_224_" style="fill:#001B3C;" cx="50" cy="170.5" r="10"/>
	<path id="XMLID_225_" style="fill:#FFDA44;" d="M162.699,160.5c0,0,27.301,30-12.699,70c-10,0-27.301,0-27.301,0L162.699,160.5z"/>
	<path id="XMLID_226_" style="fill:#0052B4;" d="M110,180.5H90c0,27.931-16.449,52.085-40.164,63.307
		c5.969,4.215,12.584,8.165,19.883,11.675C93.979,239.342,110,211.759,110,180.5z"/>
</g>
</svg>