<?xml version="1.0" encoding="iso-8859-1"?>
<!-- Uploaded to: SVG Repo, www.svgrepo.com, Transformed by: SVG Repo Mixer Tools -->
<svg height="800px" width="800px" version="1.1" id="Layer_1" xmlns="http://www.w3.org/2000/svg" xmlns:xlink="http://www.w3.org/1999/xlink" 
	 viewBox="0 0 512 512" xml:space="preserve">
<g>
	<path style="fill:#495577;" d="M0,267.957c0,5.983,0.205,11.914,0.615,17.781c1.934,28.376,8.532,55.484,19.011,80.567
		c0.794,1.934,1.601,3.83,2.434,5.701c26.762-19.972,60.352-43.582,81.31-52.409c-2.114-6.879-3.959-14.361-5.304-22.419
		c-33.756-4.573-71.318-42.737-94.749-70.434c-0.692,4.253-1.281,8.545-1.755,12.875C0.525,248.92,0,258.374,0,267.957z"/>
	<path style="fill:#495577;" d="M14.937,182.048c7.584,5.432,12.798,11.056,16.5,14.374c22.419,20.062,43.8,42.314,63.183,65.86
		c0.5-9.454,1.768-18.704,3.702-27.71c17.077-79.043,87.395-138.28,171.549-138.28c22.829,0,48.476,7.481,74.341,20.203
		c-19.434-23.636-40.879-45.978-63.375-66.091c-13.477-12.055-46.772-54.817-142.251-6.444
		C81.938,72.733,37.472,122.029,14.937,182.048z"/>
	<path style="fill:#495577;" d="M39.906,403.405v0.013c43.236,65.104,106.266,81.976,151.949,86.101
		c22.88,2.063,49.398,1.499,74.239-5.521c15.014-4.24,28.124-9.839,41.87-16.193c28.683-13.259,50.961-28.76,72.304-46.119
		c-38.42,11.273-75.908,17.935-110.394,17.935c-63.452,0-119.025-33.667-149.848-84.116c-21.33,17.333-47.426,32.821-76.083,46.068
		C42.583,402.201,41.238,402.816,39.906,403.405z"/>
</g>
<path style="fill:#61ACD2;" d="M371.081,129.251c-21.317-13.579-43.172-24.148-64.054-30.413
	c-13.797-4.138-27.185-6.393-39.713-6.393c-8.263,0-16.385,0.576-24.341,1.678c-23.098,3.203-44.748,10.902-64.054,22.188
	c-41.814,24.417-72.624,65.655-83.155,114.426c-2.588,11.991-3.959,24.443-3.959,37.215c0,27.492,6.29,50.346,13.49,67.577
	c14.784,35.396,40.815,64.912,73.624,84.064c19.306,11.299,40.956,18.986,64.054,22.188c7.956,1.115,16.078,1.678,24.341,1.678
	c12.529,0,25.916-0.833,39.713-2.447c20.882-2.421,42.724-6.61,64.054-12.324C444.666,408.961,512,371.016,512,324.321
	C512,258.883,444.666,176.125,371.081,129.251z"/>
<g>
	<path style="fill:#F4A026;" d="M242.973,94.123v347.659c-23.098-3.203-44.748-10.889-64.054-22.188V116.312
		C198.225,105.025,219.875,97.326,242.973,94.123z"/>
	<path style="fill:#F4A026;" d="M371.081,129.251V428.69c-21.33,5.714-43.172,9.903-64.054,12.324V98.838
		C327.909,105.102,349.764,115.671,371.081,129.251z"/>
</g>
<circle style="fill:#495577;" cx="441.537" cy="281.325" r="10.249"/>
</svg>