<?xml version="1.0" encoding="iso-8859-1"?>
<!-- Uploaded to: SVG Repo, www.svgrepo.com, Transformed by: SVG Repo Mixer Tools -->
<svg height="800px" width="800px" version="1.1" id="Layer_1" xmlns="http://www.w3.org/2000/svg" xmlns:xlink="http://www.w3.org/1999/xlink" 
	 viewBox="0 0 512 512" xml:space="preserve">
<path style="fill:#58A4B3;" d="M131.275,256.025c14.331-69.207-47.49-130.047-116.51-114.57c-6.168,1.384-10.983,6.2-12.368,12.368
	c-8.86,39.501,7.335,79.748,40.822,102.203C10.013,278.294-6.535,318.402,2.399,358.228c1.383,6.168,6.2,10.983,12.368,12.368
	C83.787,386.075,145.606,325.229,131.275,256.025z"/>
<path style="fill:#277EA4;" d="M131.279,256H43.184c0.013,0.009,0.025,0.017,0.037,0.026
	C10.013,278.294-6.535,318.402,2.399,358.228c1.383,6.168,6.2,10.983,12.368,12.368c69.021,15.48,130.839-45.367,116.509-114.571
	C131.276,256.016,131.277,256.007,131.279,256z"/>
<path style="fill:#6CCFE2;" d="M99.232,262.845c-1.989-4.33-1.989-9.311,0-13.639c59.902-130.414,214.929-165.333,324.254-98.755
	c37.838,23.042,67.929,57.191,87.021,98.755c1.989,4.33,1.989,9.311,0,13.639C429.759,438.646,179.767,438.173,99.232,262.845z"/>
<path style="fill:#2C9DD0;" d="M97.742,256c-0.003,2.337,0.492,4.673,1.49,6.845c80.534,175.328,330.525,175.801,411.275,0
	c0.998-2.172,1.493-4.509,1.49-6.845H97.742z"/>
<path style="fill:#58A4B3;" d="M232.82,383.056c14.824,4.874,30.189,8.229,45.858,10c80.326-55.718,133.889-143.35,144.658-242.696
	c-10.047-6.108-20.548-11.394-31.402-15.837C384.442,243.838,320.491,334.988,232.82,383.056z"/>
<path style="fill:#277EA4;" d="M357.61,256c-28.463,54.196-72.386,98.325-124.789,127.056c14.824,4.874,30.189,8.229,45.858,10
	c50.239-34.849,90.008-82.182,115.388-137.057H357.61V256z"/>
<circle style="fill:#4C6370;" cx="446.305" cy="236.082" r="21.615"/>
</svg>