<?xml version="1.0" encoding="iso-8859-1"?>
<!-- Uploaded to: SVG Repo, www.svgrepo.com, Transformed by: SVG Repo Mixer Tools -->
<svg height="800px" width="800px" version="1.1" id="Layer_1" xmlns="http://www.w3.org/2000/svg" xmlns:xlink="http://www.w3.org/1999/xlink" 
	 viewBox="0 0 512 512" xml:space="preserve">
<g>
	<path style="fill:#3B804B;" d="M169.964,183.748c2.27-0.797,70.225-22.574,70.225-22.574
		c41.761-13.352,86.676-13.075,128.271,0.786l6.244,2.081c-94.205-38.76-136.143-45.303-164.374-51.647
		c-8.159-1.838-48.082-9.399-60.892,18.854C143.603,144.102,141.389,162.524,169.964,183.748z"/>
	<path style="fill:#3B804B;" d="M121.816,253.615c-48.403,33.302-110.834,36.867-110.834,36.867C4.916,290.482,0,285.212,0,278.691
		c0-4.838,2.712-9.001,6.598-10.805c0.21-0.1,30.202-17.227,53.419-43.654c-23.216-26.427-53.208-43.554-53.419-43.654
		C2.712,178.773,0,174.611,0,169.773c0-6.521,4.916-11.78,10.983-11.78c0,0,62.32,3.543,110.701,36.767
		c0.044,0.033,0.089,0.055,0.133,0.089c-0.487,0.266-0.963,0.554-1.439,0.864c-8.791,5.58-14.503,15.854-14.503,27.346v2.347
		C105.874,237.517,114.011,246.312,121.816,253.615z"/>
	<path style="fill:#3B804B;" d="M280.687,393.27c3.598,7.551,12.621,10.75,20.183,7.163c0,0,74.664-40.465,116.779-106.87
		c-26.272,9.599-54.802,18.135-81.086,25.309c-4.218,1.151-8.469,2.07-12.754,2.768c-17.725,30.667-40.709,55.013-40.864,55.19
		C279.115,381.236,278.03,387.668,280.687,393.27z"/>
	<path style="fill:#3B804B;" d="M163.377,303.383c1.45,8.447,20.847,46.3,36.48,61.334c6.023,5.801,13.861,9.078,20.914,4.572
		c0,0,25.176-18.068,52.489-48.06c-40.255-6.322-79.381-24.977-108.232-41.871C161.605,286.167,162.026,295.523,163.377,303.383z"/>
</g>
<path style="fill:#6ABE71;" d="M503.773,211.903c-5.536-6.133-12.71-10.551-20.548-13.164l-116.978-38.993
	c-41.595-13.861-86.51-14.138-128.271-0.786l-63.848,20.415c-14.891,4.747-39.803,15.58-55.517,13.316c0,0-1.079,0.611-1.555,0.921
	c-8.791,5.58-14.503,15.854-14.503,27.346v2.347c0,11.494,6.348,19.726,14.596,27.038c0.444,0.393,1.734,1.484,2.481,2.068
	c12.457,9.724,125.026,94.848,216.935,69.783C427.027,297.517,544.227,256.62,503.773,211.903z"/>
<g>
	<path style="fill:#3B804B;" d="M288.924,209.566c-12.127,0-21.958-9.831-21.958-21.958c0-12.127,9.831-21.958,21.958-21.958
		V209.566z"/>
	<path style="fill:#3B804B;" d="M288.924,253.482c-12.127,0-21.958-9.831-21.958-21.958c0-12.127,9.831-21.958,21.958-21.958
		V253.482z"/>
	<path style="fill:#3B804B;" d="M288.924,297.397c-12.127,0-21.958-9.831-21.958-21.958c0-12.127,9.831-21.958,21.958-21.958
		V297.397z"/>
	<path style="fill:#3B804B;" d="M228.032,217.473c-7.76,0-14.052-6.291-14.052-14.052c0-7.76,6.291-14.052,14.052-14.052V217.473z"
		/>
	<path style="fill:#3B804B;" d="M228.032,245.575c-7.76,0-14.052-6.291-14.052-14.052c0-7.76,6.291-14.052,14.052-14.052V245.575z"
		/>
	<path style="fill:#3B804B;" d="M228.032,273.677c-7.76,0-14.052-6.291-14.052-14.052c0-7.76,6.291-14.052,14.052-14.052V273.677z"
		/>
	<circle style="fill:#3B804B;" cx="417.65" cy="217.472" r="8.857"/>
</g>
</svg>