<?xml version="1.0" encoding="iso-8859-1"?>
<!-- Uploaded to: SVG Repo, www.svgrepo.com, Transformed by: SVG Repo Mixer Tools -->
<!DOCTYPE svg PUBLIC "-//W3C//DTD SVG 1.1//EN" "http://www.w3.org/Graphics/SVG/1.1/DTD/svg11.dtd">
<svg height="800px" width="800px" version="1.1" id="Capa_1" xmlns="http://www.w3.org/2000/svg" xmlns:xlink="http://www.w3.org/1999/xlink" 
	 viewBox="0 0 449.296 449.296" xml:space="preserve">
<g>
	<g>
		<path style="fill:#F9D43A;" d="M107.253,184.669L96.524,173.94c-23.692-23.692-23.692-62.104,0-85.796l10.729-10.729
			l10.729,10.729c23.692,23.692,23.692,62.104,0,85.796L107.253,184.669z"/>
		<path style="fill:#F9D43A;" d="M107.253,184.669l-10.729,10.729c-23.692,23.692-62.104,23.692-85.796,0L0,184.669l10.729-10.729
			c23.692-23.692,62.104-23.692,85.796,0L107.253,184.669z"/>
	</g>
	<path style="fill:#F9993A;" d="M441.642,197.163c-2.634,2.634-6.905,2.634-9.54,0c-2.634-2.634-2.634-6.905,0-9.54l9.589-9.589
		h-341.09c0,63.96,34.403,119.889,85.72,150.287c26.021,15.412,56.387,24.253,88.819,24.253c2.982,0,5.954-0.075,8.904-0.224
		c30.824-1.555,59.54-11.098,84.112-26.617c45.948-28.983,77.415-78.828,81.14-136.224L441.642,197.163z"/>
	<path style="fill:#F9D43A;" d="M441.642,197.163c-2.634,2.634-6.905,2.634-9.54,0c-2.634-2.634-2.634-6.905,0-9.54l9.592-9.592
		H339.756c-3.688,14.101-5.638,28.89-5.638,44.141c0,38.778,12.639,74.594,34.04,103.559
		c45.941-28.986,77.407-78.824,81.134-136.218L441.642,197.163z"/>
	<circle style="fill:#FFFFFF;" cx="386.748" cy="218.801" r="22.501"/>
	<circle style="fill:#4D4D4D;" cx="386.748" cy="218.801" r="13.767"/>
	<path style="fill:#F9D43A;" d="M219.305,178.031h54.383v-17.803c0-17.09-13.854-30.944-30.944-30.944h-58.525v13.662
		C184.219,162.322,199.928,178.031,219.305,178.031z"/>
	<path style="fill:#F9D43A;" d="M238.603,371.881h-54.383v-17.803c0-17.09,13.854-30.944,30.944-30.944h58.525v13.662
		C273.689,356.172,257.98,371.881,238.603,371.881z"/>
</g>
</svg>