<?xml version="1.0" encoding="iso-8859-1"?>
<!-- Uploaded to: SVG Repo, www.svgrepo.com, Transformed by: SVG Repo Mixer Tools -->
<svg height="800px" width="800px" version="1.1" id="Layer_1" xmlns="http://www.w3.org/2000/svg" xmlns:xlink="http://www.w3.org/1999/xlink" 
	 viewBox="0 0 512 512" xml:space="preserve">
<g>
	<path style="fill:#FFF2B1;" d="M405.641,254.282L241.072,410.624h126.464c31.619,0,57.264-25.634,57.264-57.264v-63.022
		L405.641,254.282z"/>
	<path style="fill:#FFF2B1;" d="M367.536,101.376H241.072l164.568,156.342l19.16-36.056V158.64
		C424.801,127.01,399.155,101.376,367.536,101.376z"/>
</g>
<path style="fill:#FFD608;" d="M11.378,256l-9.993-8.536c3.567-10.648,13.624-18.316,25.467-18.316h24.656
	c12.72-72.602,76.06-127.772,152.303-127.772h37.262c78.256,0,142.928,58.14,153.19,133.586c12.026-1.24,21.959-6.349,30.538-13.301
	c19.649-15.895,32.267-41.449,47.024-52.372C496.151,190.419,512,221.241,512,256s-15.849,65.582-40.175,86.71
	c-14.757-10.923-27.375-36.477-47.024-52.372c-8.579-6.952-18.512-12.06-30.538-13.301C384,352.484,319.329,410.624,241.072,410.624
	H203.81c-76.243,0-139.583-55.171-152.303-127.772H26.852c-11.843,0-21.9-7.667-25.467-18.316L11.378,256z"/>
<path style="fill:#FFFFFF;" d="M142.495,204.322c13.71,0,24.815,11.116,24.815,24.815c0,13.71-11.105,24.826-24.815,24.826
	c-13.699,0-24.815-11.116-24.815-24.826C117.68,215.438,128.796,204.322,142.495,204.322z"/>
<path style="fill:#FFE76D;" d="M51.508,247.467H1.393C0.494,250.148,0,253.016,0,256c0,2.984,0.494,5.852,1.393,8.533h50.116
	c4.714,0,8.533-3.821,8.533-8.533C60.042,251.287,56.221,247.467,51.508,247.467z"/>
</svg>