<?xml version="1.0" encoding="iso-8859-1"?>
<!-- Uploaded to: SVG Repo, www.svgrepo.com, Transformed by: SVG Repo Mixer Tools -->
<svg height="800px" width="800px" version="1.1" id="Layer_1" xmlns="http://www.w3.org/2000/svg" xmlns:xlink="http://www.w3.org/1999/xlink" 
	 viewBox="0 0 340 340" xml:space="preserve">
<g id="XMLID_333_">
	<g id="XMLID_447_">
		<path id="XMLID_448_" style="fill:#FFDA44;" d="M314,160.822l-64,32v32l64,32c0,0,16-13.175,16-48S314,160.822,314,160.822z"/>
	</g>
	<path id="XMLID_449_" style="fill:#FFDA44;" d="M274.334,185.155c0,0,21.216-5.572,15.333-38.667
		c-3.39-19.07-28.033-52.217-69.667-69.666c51.403-10.208,120-10.001,120-10.001c-100-40-229.999-20-269.999,29.999
		c0,0.001-0.001,0.001-0.001,0.001c-7,7.817-29.921,75.795-40.077,107.911C18.073,214.341,0,236.822,0,236.822
		s25.667,24.999,92.334,43.666C159,299.155,240,296.822,270,286.822c25.347-8.449,28.473-26.982,11.418-54.165
		c0.249-0.168,18.582-25.835,18.582-25.835L274.334,185.155z"/>
	<g id="XMLID_450_">
		<circle id="XMLID_451_" style="fill:#802812;" cx="60" cy="206.822" r="10"/>
	</g>
	<g id="XMLID_65_">
		<path id="XMLID_453_" style="fill:#FF9811;" d="M70.001,96.821C70.001,96.821,70,96.821,70.001,96.821
			c-1.425,1.591-3.509,5.673-6.01,11.436l23.566,170.86c1.57,0.46,3.157,0.918,4.776,1.371c14.201,3.977,29.053,6.997,43.923,9.196
			L105.904,69.626C90.725,77.192,78.382,86.344,70.001,96.821z"/>
	</g>
	<g id="XMLID_63_">
		<path id="XMLID_454_" style="fill:#FF9811;" d="M50,236.822c0,9.473-1.901,18.507-5.326,26.755
			c5.589,2.484,11.759,5.009,18.54,7.515C67.583,260.523,70,248.95,70,236.822H50z"/>
	</g>
	<g id="XMLID_61_">
		<path id="XMLID_455_" style="fill:#FF9811;" d="M270,286.822c25.347-8.449,28.473-26.982,11.418-54.165
			c0.249-0.168,18.582-25.835,18.582-25.835l-25.666-21.667c0,0,21.216-5.572,15.333-38.667
			c-3.39-19.07-28.033-52.217-69.667-69.666c51.403-10.208,120-10.001,120-10.001c-54.226-21.69-117.266-25.731-170-16.92v243.436
			C212.617,296.324,251.26,293.069,270,286.822z"/>
	</g>
	<g id="XMLID_59_">
		<path id="XMLID_458_" style="fill:#FF5023;" d="M245.182,291.951l34.82-167.138c-11.26-17.017-31.7-36.13-60.002-47.992v217.231
			C229.141,293.641,237.616,292.924,245.182,291.951z"/>
	</g>
	<g id="XMLID_452_">
		<path id="XMLID_459_" style="fill:#FF5023;" d="M110,226.822l40-30c0,0,10,40-20,50L110,226.822z"/>
	</g>
</g>
</svg>