<?xml version="1.0" encoding="iso-8859-1"?>
<!-- Uploaded to: SVG Repo, www.svgrepo.com, Transformed by: SVG Repo Mixer Tools -->
<svg height="800px" width="800px" version="1.1" id="Layer_1" xmlns="http://www.w3.org/2000/svg" xmlns:xlink="http://www.w3.org/1999/xlink" 
	 viewBox="0 0 512 512" xml:space="preserve">
<path style="fill:#FBB071;" d="M17.067,453.102C7.641,453.102,0,445.461,0,436.035v-79.763c0-29.756,9.801-58.006,27.877-81.062
	C9.801,252.153,0,223.903,0,194.147v-79.763c0-9.425,7.641-17.067,17.067-17.067c67.221,0,121.909,54.688,121.909,121.909v111.965
	C138.976,398.413,84.288,453.102,17.067,453.102z"/>
<path style="fill:#FF835D;" d="M27.858,275.186c0.006,0.008,0.011,0.016,0.018,0.024C9.801,298.265,0,326.515,0,356.272v79.763
	c0,9.425,7.641,17.067,17.067,17.067c67.221,0,121.909-54.688,121.909-121.909v-56.006H27.858z"/>
<path style="fill:#FBB071;" d="M167.011,217.824C118.842,67.851,338.383-7.653,396.145,134.706
	c4.975,12.261-5.351,25.341-18.471,23.276c-43.861-6.91-112.194,8.276-183.483,67.73
	C184.924,233.441,170.718,229.365,167.011,217.824z"/>
<path style="fill:#F6D86E;" d="M108.241,285.437c-4.543-6.065-4.542-14.401,0.002-20.465
	C166.708,186.93,288.418,103.5,391.599,125.874c12.244,2.654,17.554,17.203,9.885,27.119
	c-55.579,71.877-55.704,172.412,0.009,244.437c7.607,9.833,2.467,24.47-9.901,27.137
	C290.929,446.273,169.175,366.785,108.241,285.437z"/>
<path style="fill:#FBB071;" d="M359.754,275.186H104.835c-0.005,3.606,1.131,7.212,3.407,10.25
	c60.934,81.349,182.687,160.835,283.35,139.129c12.368-2.667,17.508-17.303,9.901-27.137
	C373.643,361.425,359.746,318.297,359.754,275.186z"/>
<path style="fill:#FAE8AC;" d="M374.495,418.313c-64.253-83.059-66.084-200.756-0.014-286.201
	c4.021-5.202,10.677-7.632,17.101-6.242C460.731,140.792,512,202.355,512,275.206c0,72.882-51.291,134.43-120.405,149.348
	C385.099,425.956,378.473,423.458,374.495,418.313z"/>
<path style="fill:#F6D86E;" d="M325.622,275.186c0.033,50.797,16.551,101.345,48.873,143.127c3.979,5.145,10.605,7.642,17.1,6.24
	C460.709,409.635,512,348.086,512,275.206c0-0.007,0-0.013,0-0.019H325.622z"/>
<circle style="fill:#8F5543;" cx="453.234" cy="229.672" r="18.604"/>
</svg>