<?xml version="1.0" encoding="iso-8859-1"?>
<!-- Uploaded to: SVG Repo, www.svgrepo.com, Transformed by: SVG Repo Mixer Tools -->
<svg height="800px" width="800px" version="1.1" id="Capa_1" xmlns="http://www.w3.org/2000/svg" xmlns:xlink="http://www.w3.org/1999/xlink" 
	 viewBox="0 0 180.166 180.166" xml:space="preserve">
<g>
	<path style="fill:#7D868C;" d="M112.068,25.595c-37.299,0-67.536,30.237-67.536,67.536l0,0h68.098
		c37.299,0,67.537-30.237,67.537-67.536l0,0H112.068z"/>
	<path style="fill:#5C6670;" d="M42.358,93.131C18.964,93.131,0,112.096,0,135.49h2.173c23.394,0,42.358-18.964,42.358-42.358
		H42.358z"/>
	<path style="fill:#5C6670;" d="M45.3,93.131l-1.537,1.537c-16.542,16.542-16.542,43.361,0,59.903l0,0l1.537-1.536
		C61.842,136.493,61.842,109.673,45.3,93.131z"/>
	<path style="fill:#5C6670;" d="M105.052,51.736c-10.211,0-18.489,8.278-18.489,18.489v5.43h4.663
		c13.21,0,23.919-10.709,23.919-23.919H105.052z"/>
	<g>
		<circle style="fill:#FFFFFF;" cx="138.405" cy="45.847" r="11.778"/>
		<circle style="fill:#379624;" cx="138.404" cy="45.847" r="5.889"/>
	</g>
</g>
</svg>