<?xml version="1.0" encoding="iso-8859-1"?>
<!-- Uploaded to: SVG Repo, www.svgrepo.com, Transformed by: SVG Repo Mixer Tools -->
<svg height="800px" width="800px" version="1.1" id="Layer_1" xmlns="http://www.w3.org/2000/svg" xmlns:xlink="http://www.w3.org/1999/xlink" 
	 viewBox="0 0 512 512" xml:space="preserve">
<g>
	<path style="fill:#495577;" d="M225.914,182.273c0.487-0.238,0.974-0.464,1.46-0.691c13.414-6.135,28.209-9.712,43.774-10.12
		c33.824-0.86,64.399,13.12,85.669,35.895C337.302,119.278,293.573,49.287,245.531,0
		C262.648,61.988,254.996,127.111,225.914,182.273z"/>
	<path style="fill:#495577;" d="M261.211,512c55.864-30.054,94.951-88.397,98.529-155.819c-5.117,4.053-8.682,6.962-9.271,7.494
		c-20.127,18.395-46.932,29.624-76.353,29.624c-3.271,0-6.509-0.136-9.712-0.419C274.217,430.814,273.876,471.995,261.211,512z"/>
	<path style="fill:#495577;" d="M166.652,254.608l-92.903-53.702c0,23.376,28.311,81.458,28.311,81.458
		s-39.631,46.763-39.631,70.138l104.177-42.37L166.652,254.608z"/>
</g>
<path style="fill:#E46A53;" d="M160.924,280.757c-0.147,10.143,1.053,19.991,3.419,29.375c8.841,35.058,34.039,63.607,66.991,77.055
	c13.199,5.4,27.643,8.377,42.778,8.377c29.42,0,56.226-11.229,76.353-29.624c1.868-1.709,34.492-27.915,50.034-37.741l41.555-26.307
	c4.686-3,7.516-8.173,7.516-13.742v-0.181c0-5.603-2.875-10.811-7.607-13.799l-9.441-6.045
	c-27.655-17.716-53.102-38.714-75.459-62.78c-0.045-0.057-0.102-0.102-0.159-0.158c-21.281-22.832-51.891-36.846-85.76-35.986
	c-15.565,0.408-30.36,3.985-43.774,10.12c-30.926,14.127-54.483,41.816-62.984,75.289
	C162.237,262.996,161.048,271.757,160.924,280.757z"/>
<g>
	<circle style="fill:#495577;" cx="199.4" cy="250.668" r="9.056"/>
	<circle style="fill:#495577;" cx="236.756" cy="258.592" r="9.056"/>
	<circle style="fill:#495577;" cx="270.727" cy="218.973" r="9.056"/>
	<circle style="fill:#495577;" cx="261.66" cy="289.156" r="9.056"/>
	<circle style="fill:#495577;" cx="225.436" cy="342.36" r="9.056"/>
	<circle style="fill:#495577;" cx="259.396" cy="332.172" r="9.056"/>
	<circle style="fill:#495577;" cx="217.512" cy="300.476" r="9.056"/>
	<circle style="fill:#495577;" cx="374.452" cy="269.29" r="9.056"/>
</g>
</svg>