<?xml version="1.0" encoding="iso-8859-1"?>
<!-- Uploaded to: SVG Repo, www.svgrepo.com, Transformed by: SVG Repo Mixer Tools -->
<svg height="800px" width="800px" version="1.1" id="Layer_1" xmlns="http://www.w3.org/2000/svg" xmlns:xlink="http://www.w3.org/1999/xlink" 
	 viewBox="0 0 512 512" xml:space="preserve">
<path style="fill:#DE5153;" d="M0,340.322V227.491c0-12.573,13.642-20.427,24.511-14.151l97.716,56.416
	c10.888,6.286,10.87,22.028,0,28.302l-97.716,56.416C13.707,360.712,0,352.979,0,340.322z"/>
<path style="fill:#C74C4E;" d="M0,283.904v56.418c0,12.656,13.707,20.39,24.511,14.151l97.716-56.416
	c5.437-3.138,8.158-8.646,8.159-14.153H0z"/>
<path style="fill:#DE5153;" d="M253.015,164.534v-58.597c0-9.024,7.316-16.34,16.34-16.34c42.366,0,78.521,30.229,85.968,71.876
	c1.985,11.105-7.639,20.842-18.753,18.997c-21.089-3.491-43.381-3.431-64.462,0.171
	C262.106,182.347,253.015,174.627,253.015,164.534z"/>
<path style="fill:#FC5B5D;" d="M99.207,290.728c-1.989-4.33-1.989-9.312,0-13.641c80.706-175.702,330.806-175.216,411.302,0
	c1.988,4.33,1.988,9.312,0,13.642C429.864,466.287,179.858,466.302,99.207,290.728z"/>
<g>
	<path style="fill:#DE5153;" d="M97.716,283.904c0,2.329,0.497,4.657,1.491,6.823c80.65,175.575,330.656,175.56,411.302,0
		c0.995-2.166,1.491-4.495,1.491-6.823H97.716z"/>
	<path style="fill:#DE5153;" d="M404.378,168.381c-9.901-4.855-20.156-8.995-30.687-12.373
		c-19.881,84.26-19.891,171.61,0.037,255.96c10.538-3.293,20.811-7.352,30.74-12.144
		C387.706,325.893,386.585,247.14,404.378,168.381z"/>
	<path style="fill:#DE5153;" d="M283.501,328.045c-39.666,0-71.937-32.27-71.937-71.936c0-9.024,7.316-16.34,16.34-16.34h55.597
		c9.024,0,16.34,7.316,16.34,16.34c0,9.024-7.316,16.34-16.34,16.34h-35.692c6.21,13.511,19.873,22.915,35.692,22.915
		c9.024,0,16.34,7.316,16.34,16.34C299.841,320.729,292.525,328.045,283.501,328.045z"/>
</g>
<g>
	<path style="fill:#C74C4E;" d="M391.471,283.904H358.78c0,42.931,4.978,85.872,14.946,128.063
		c10.538-3.293,20.811-7.352,30.74-12.144C395.942,362.221,391.473,323.369,391.471,283.904z"/>
	<path style="fill:#C74C4E;" d="M283.501,295.364c-10.794,0-20.58-4.385-27.684-11.46h-38.661
		c10.894,25.904,36.527,44.141,66.345,44.141c9.024,0,16.34-7.316,16.34-16.34C299.841,302.681,292.525,295.364,283.501,295.364z"/>
</g>
<circle style="fill:#555C5E;" cx="440.124" cy="252.209" r="21.616"/>
</svg>