<?xml version="1.0" encoding="iso-8859-1"?>
<!-- Uploaded to: SVG Repo, www.svgrepo.com, Transformed by: SVG Repo Mixer Tools -->
<svg height="800px" width="800px" version="1.1" id="Layer_1" xmlns="http://www.w3.org/2000/svg" xmlns:xlink="http://www.w3.org/1999/xlink" 
	 viewBox="0 0 512.001 512.001" xml:space="preserve">
<path style="fill:#F3B73F;" d="M0,312.417V199.585c0-12.573,13.642-20.427,24.511-14.151l97.716,56.416
	c10.888,6.286,10.87,22.028,0,28.302l-97.716,56.416C13.707,332.807,0,325.073,0,312.417z"/>
<path style="fill:#FFC843;" d="M99.207,262.822c-1.989-4.33-1.989-9.312,0-13.641c80.721-175.735,330.721-175.426,411.302,0
	c1.989,4.33,1.989,9.312,0,13.641C429.834,438.456,179.83,438.344,99.207,262.822z"/>
<g>
	<path style="fill:#F3B73F;" d="M396.568,136.453c-10.235,105.634-70.71,196.546-157.546,248.538
		c14.858,4.416,30.216,7.328,45.844,8.671c76.854-56.896,129.498-142.588,142.681-240.701
		C417.696,146.661,407.397,141.171,396.568,136.453z"/>
	<path style="fill:#F3B73F;" d="M283.501,300.14c-39.666,0-71.936-32.27-71.936-71.936c0-9.024,7.316-16.34,16.34-16.34h55.596
		c9.024,0,16.34,7.316,16.34,16.34c0,9.024-7.316,16.34-16.34,16.34H247.81c6.21,13.511,19.873,22.915,35.691,22.915
		c9.024,0,16.34,7.316,16.34,16.34S292.525,300.14,283.501,300.14z"/>
</g>
<path style="fill:#E7A53B;" d="M0,255.999v56.418c0,12.656,13.707,20.39,24.511,14.151l97.716-56.416
	c5.437-3.138,8.158-8.646,8.159-14.153H0z"/>
<path style="fill:#F3B73F;" d="M97.716,255.999c0,2.329,0.497,4.657,1.491,6.823c80.623,175.521,330.627,175.635,411.302,0
	c0.995-2.166,1.491-4.495,1.491-6.823H97.716z"/>
<g>
	<path style="fill:#E7A53B;" d="M360.968,255.999c-27.973,53.371-70.295,98.067-121.945,128.992
		c14.858,4.416,30.216,7.328,45.844,8.671c48.398-35.83,87.182-83.086,112.569-137.664H360.968z"/>
	<path style="fill:#E7A53B;" d="M283.501,267.459c-10.794,0-20.58-4.385-27.684-11.46h-38.66
		c10.894,25.904,36.527,44.141,66.344,44.141c9.024,0,16.34-7.316,16.34-16.34S292.525,267.459,283.501,267.459z"/>
</g>
<circle style="fill:#555C5E;" cx="448.163" cy="227.372" r="21.616"/>
</svg>