<?xml version="1.0" encoding="iso-8859-1"?>
<!-- Uploaded to: SVG Repo, www.svgrepo.com, Transformed by: SVG Repo Mixer Tools -->
<svg height="800px" width="800px" version="1.1" id="Layer_1" xmlns="http://www.w3.org/2000/svg" xmlns:xlink="http://www.w3.org/1999/xlink" 
	 viewBox="0 0 512 512" xml:space="preserve">
<g>
	<path style="fill:#EB7830;" d="M194.15,94.685c-44.335,18.515-80.019,53.906-98.934,98.001l-1.626,1.586l-51.986-55.985
		C61.599,90.3,146.909,34.315,146.909,34.315L194.15,94.685z"/>
	<path style="fill:#EB7830;" d="M192.164,429.117l-45.255,57.825c0,0-85.311-55.985-105.306-103.973l51.64-55.612
		C111.319,373.052,147.123,409.803,192.164,429.117z"/>
	<path style="fill:#EB7830;" d="M81.727,260.935c-0.067,9.384,0.573,18.608,1.866,27.606l-68.649,33.698
		c-31.992-58.651-2.666-135.964-2.666-135.964l71.941,45.775C82.646,241.46,81.793,251.111,81.727,260.935z"/>
	<path style="fill:#EB7830;" d="M343.551,423.679c-14.823,20.328-65.263,78.926-151.32,74.514l40.483-57.905
		c9.571,1.533,19.382,2.333,29.379,2.333C291.338,442.621,318.998,435.809,343.551,423.679z"/>
	<path style="fill:#EB7830;" d="M347.47,102.79c-27.286-14.356-65.516-25.927-112.277-18.862l-47.374-62.85
		C266.718-4.155,336.353,37.021,347.47,102.79z"/>
</g>
<path style="fill:#F4A026;" d="M512,315.774v0.4c0,15.449-8.891,29.512-22.847,36.124l-75.393,35.817
	c-14.343,6.812-28.366,14.29-41.816,22.687c-2.693,1.68-5.359,3.386-7.998,5.145c-6.518,4.332-13.316,8.251-20.381,11.73h-0.013
	c-24.554,12.13-52.213,18.942-81.459,18.942c-9.997,0-19.808-0.8-29.379-2.333c-15.089-2.413-29.579-6.665-43.215-12.503
	c-45.041-19.315-80.845-56.065-98.921-101.76c-5.199-13.157-8.931-27.046-10.984-41.482c-1.293-8.998-1.933-18.222-1.866-27.606
	c0.067-9.824,0.92-19.475,2.493-28.886c2.426-14.649,6.612-28.739,12.33-42.029c18.915-44.095,54.599-79.486,98.934-98.001
	c6.372-2.679,12.93-4.985,19.635-6.932c8.251-2.293,16.289-3.986,24.074-5.159c46.761-7.065,84.991,4.505,112.277,18.862
	c7.145,3.759,13.556,7.718,19.155,11.584c22.008,15.169,40.549,35.004,54.199,58.078c1.613,2.706,3.159,5.479,4.625,8.278
	c20.741,39.523,45.428,76.846,74.74,110.518l1.626,1.866C508.374,296.446,512,305.937,512,315.774z"/>
<path style="fill:#EB7830;" d="M512,315.774v0.4c0,15.449-8.891,29.512-22.847,36.124l-75.393,35.817
	c-14.343,6.812-28.366,14.29-41.816,22.687c-27.833-26.633-45.161-64.143-45.161-105.706c0-62.37,39.043-115.623,94.042-136.644
	c1.613,2.706,3.159,5.479,4.625,8.278c20.741,39.523,45.428,76.846,74.74,110.518l1.626,1.866
	C508.374,296.446,512,305.937,512,315.774z"/>
<circle style="fill:#CA463D;" cx="414.838" cy="262.211" r="10.664"/>
<g>
	<path style="fill:#EB7830;" d="M252.47,253.953c-9.343,0-16.918-7.574-16.918-16.918c0-9.344,7.574-16.918,16.918-16.918V253.953z"
		/>
	<path style="fill:#EB7830;" d="M252.47,287.788c-9.343,0-16.918-7.574-16.918-16.918c0-9.343,7.574-16.918,16.918-16.918V287.788z"
		/>
	<path style="fill:#EB7830;" d="M252.47,321.624c-9.343,0-16.918-7.574-16.918-16.918c0-9.343,7.574-16.918,16.918-16.918V321.624z"
		/>
	<path style="fill:#EB7830;" d="M207.875,253.953c-9.343,0-16.918-7.574-16.918-16.918c0-9.344,7.574-16.918,16.918-16.918V253.953z
		"/>
	<path style="fill:#EB7830;" d="M207.875,287.788c-9.343,0-16.918-7.574-16.918-16.918c0-9.343,7.574-16.918,16.918-16.918V287.788z
		"/>
	<path style="fill:#EB7830;" d="M207.875,321.624c-9.343,0-16.918-7.574-16.918-16.918c0-9.343,7.574-16.918,16.918-16.918V321.624z
		"/>
</g>
</svg>